<svg xmlns="http://www.w3.org/2000/svg" width="1938" height="1248" viewBox="0 0 1938 1248" version="1.1"><path d="M 583.500 142.027 C 403.887 154.324, 288.096 270.121, 268.045 457.500 C 267.456 463, 266.679 469.300, 266.317 471.500 C 265.955 473.700, 265.500 599.587, 265.304 751.250 L 264.948 1027 323.474 1027 L 382 1027 382.053 763.750 C 382.082 618.962, 382.310 497.800, 382.559 494.500 C 394.158 340.874, 476.629 253.470, 613.500 249.745 L 622.500 249.500 623.151 233 C 624.494 198.975, 633.129 174.328, 652.047 150.522 L 657.817 143.261 652.158 142.628 C 642.122 141.506, 596.893 141.110, 583.500 142.027 M 768.363 146.941 C 663.425 171.506, 680.848 324.497, 788.653 325.115 C 854.025 325.490, 896.615 260.616, 871.528 198.878 C 855.807 160.187, 810.093 137.173, 768.363 146.941 M 1232.500 153.606 C 1200.769 155.948, 1175.598 159.163, 1154.500 163.571 C 975.901 200.882, 868.649 322.360, 845.549 513.500 C 841.704 545.321, 841.683 546.718, 841.298 794.684 L 840.920 1037.867 844.210 1038.184 C 846.020 1038.358, 892.837 1038.383, 948.250 1038.241 L 1049 1037.981 1049.027 809.241 C 1049.056 572.757, 1049.069 571.412, 1051.583 546.500 C 1064.493 418.576, 1142.275 346.993, 1268.356 347.001 C 1385.911 347.009, 1461.422 410.779, 1480.905 526.500 C 1485.437 553.418, 1485.314 546.433, 1485.699 797.451 C 1485.902 929.424, 1486.195 1037.528, 1486.350 1037.683 C 1486.549 1037.883, 1680.068 1038.196, 1692.750 1038.018 C 1694.371 1037.995, 1694.568 584.517, 1692.959 554 C 1678.978 288.688, 1500.861 133.806, 1232.500 153.606" stroke="none" fill="#3c6c9c" fill-rule="evenodd"/><path d="M 0 624.001 L 0 1248.001 969.250 1247.751 L 1938.500 1247.500 1938.751 623.750 L 1939.002 0 969.501 0 L 0 0 0 624.001 M 0.497 624.500 C 0.497 967.700, 0.611 1107.951, 0.750 936.168 C 0.889 764.385, 0.889 483.585, 0.750 312.168 C 0.611 140.751, 0.497 281.300, 0.497 624.500 M 583.500 142.027 C 403.887 154.324, 288.096 270.121, 268.045 457.500 C 267.456 463, 266.679 469.300, 266.317 471.500 C 265.955 473.700, 265.500 599.587, 265.304 751.250 L 264.948 1027 323.474 1027 L 382 1027 382.053 763.750 C 382.082 618.962, 382.310 497.800, 382.559 494.500 C 394.158 340.874, 476.629 253.470, 613.500 249.745 L 622.500 249.500 623.151 233 C 624.494 198.975, 633.129 174.328, 652.047 150.522 L 657.817 143.261 652.158 142.628 C 642.122 141.506, 596.893 141.110, 583.500 142.027 M 768.363 146.941 C 663.425 171.506, 680.848 324.497, 788.653 325.115 C 854.025 325.490, 896.615 260.616, 871.528 198.878 C 855.807 160.187, 810.093 137.173, 768.363 146.941 M 1232.500 153.606 C 1200.769 155.948, 1175.598 159.163, 1154.500 163.571 C 975.901 200.882, 868.649 322.360, 845.549 513.500 C 841.704 545.321, 841.683 546.718, 841.298 794.684 L 840.920 1037.867 844.210 1038.184 C 846.020 1038.358, 892.837 1038.383, 948.250 1038.241 L 1049 1037.981 1049.027 809.241 C 1049.056 572.757, 1049.069 571.412, 1051.583 546.500 C 1064.493 418.576, 1142.275 346.993, 1268.356 347.001 C 1385.911 347.009, 1461.422 410.779, 1480.905 526.500 C 1485.437 553.418, 1485.314 546.433, 1485.699 797.451 C 1485.902 929.424, 1486.195 1037.528, 1486.350 1037.683 C 1486.549 1037.883, 1680.068 1038.196, 1692.750 1038.018 C 1694.371 1037.995, 1694.568 584.517, 1692.959 554 C 1678.978 288.688, 1500.861 133.806, 1232.500 153.606" stroke="none" fill="#fbfbfb" fill-rule="evenodd"/></svg>